#!OML:ASF F:\VICON\USERDATA\INSTALL\rory3\rory3.ASF
:FULLY-SPECIFIED
:DEGREES
1158
root 0.661471 15.6974 3.008 4.72122 -45.3947 13.8365
lowerback -0.175299 4.83033 5.87314
upperback 5.56281 6.29018 -1.5103
thorax 6.74385 3.4586 -4.43571
lowerneck 1.27107 -9.17181 -12.39
upperneck 46.8822 -17.9268 8.23242
head 20.6173 -8.76802 3.3881
rclavicle -8.5875e-014 1.74931e-014
rhumerus -21.3469 27.2039 -97.2268
rradius 20.5809
rwrist 16.8639
rhand -26.3766 -53.8861
rfingers 7.12502
rthumb 0.182011 -83.8658
lclavicle -8.5875e-014 1.74931e-014
lhumerus -53.3673 -83.651 128.997
lradius 85.3646
lwrist 24.0206
lhand 5.43131 -22.4392
lfingers 7.12502
lthumb 30.7813 5.0037
rfemur -32.8032 1.779 -5.21234
rtibia 76.309
rfoot -2.60814 -9.1051
rtoes -30.8137
lfemur -49.3603 -19.4661 -29.83
ltibia 58.1626
lfoot -21.8203 1.4245
ltoes 15.8577
1159
root 0.665369 15.6924 2.99996 4.87469 -45.3706 13.6539
lowerback -0.154273 4.83523 6.00491
upperback 5.53553 6.29252 -1.48421
thorax 6.71611 3.46466 -4.48383
lowerneck 0.812665 -9.21302 -12.6456
upperneck 47.1264 -17.9572 8.28349
head 21.0424 -8.83113 3.54566
rclavicle -2.78299e-014 1.43125e-014
rhumerus -21.3429 27.0271 -97.202
rradius 20.572
rwrist 16.9351
rhand -26.4105 -53.7311
rfingers 7.12502
rthumb 0.14924 -83.7108
lclavicle -2.78299e-014 1.43125e-014
lhumerus -53.4589 -83.6769 129.041
lradius 85.4358
lwrist 24.2723
lhand 6.3134 -23.105
lfingers 7.12502
lthumb 31.6219 4.1761
rfemur -32.918 1.79918 -5.04168
rtibia 76.408
rfoot -2.62806 -9.19564
rtoes -31.6273
lfemur -49.5164 -19.4365 -29.6001
ltibia 58.2621
lfoot -21.7428 1.15085
ltoes 16.1691
1160
root 0.672332 15.6824 2.98331 5.02902 -45.3162 13.4389
lowerback 0.0747872 4.84149 6.10099
upperback 5.46075 6.31077 -1.46114
thorax 6.51561 3.47179 -4.53495
lowerneck 0.883084 -9.22725 -12.5989
upperneck 47.1292 -18.0089 8.31429
head 21.0329 -8.84393 3.54797
rclavicle -1.59028e-015 -3.65764e-014
rhumerus -21.3106 26.5057 -97.1285
rradius 20.4481
rwrist 17.4294
rhand -26.6771 -53.3197
rfingers 7.12502
rthumb -0.108178 -83.2994
lclavicle -1.59028e-015 -3.65764e-014
lhumerus -54.0113 -83.7874 129.521
lradius 85.4715
lwrist 24.3875
lhand 5.67878 -22.0547
lfingers 7.12502
lthumb 31.0172 5.3435
rfemur -33.1264 1.81272 -4.79747
rtibia 76.5859
rfoot -2.54353 -9.36902
rtoes -31.9393
lfemur -49.7192 -19.4237 -29.2592
ltibia 58.3523
lfoot -21.577 0.626386
ltoes 16.8909
1161
root 0.678651 15.6757 2.97106 5.12788 -45.2448 13.2155
lowerback 0.320309 4.85688 6.24923
upperback 5.42907 6.34121 -1.45956
thorax 6.36355 3.49036 -4.63574
lowerneck 0.846336 -9.27822 -12.4242
upperneck 47.1811 -18.0895 8.24317
head 21.0557 -8.84834 3.46315
rclavicle 6.36111e-015 -7.95139e-015
rhumerus -21.1723 26.1139 -97.0914
rradius 20.4136
rwrist 17.4295
rhand -26.5667 -53.5708
rfingers 7.12502
rthumb -0.00155807 -83.5506
lclavicle 6.36111e-015 -7.95139e-015
lhumerus -54.78 -84.003 130.222
lradius 85.4861
lwrist 24.3963
lhand 3.89109 -20.0241
lfingers 7.12502
lthumb 29.3117 7.68565
rfemur -33.1985 1.83798 -4.57046
rtibia 76.7363
rfoot -2.59642 -9.48373
rtoes -31.775
lfemur -49.813 -19.4058 -29.0142
ltibia 58.4427
lfoot -21.5199 0.334611
ltoes 17.3281
1162
root 0.683461 15.67 2.95741 5.18503 -45.2052 13.044
lowerback 0.549596 4.84096 6.30024
upperback 5.39624 6.33035 -1.42459
thorax 6.19743 3.48154 -4.65024
lowerneck 0.845124 -9.27817 -12.3855
upperneck 47.2387 -18.0823 8.1861
head 21.0813 -8.84414 3.42985
rclavicle -6.04305e-014 3.97569e-014
rhumerus -21.0512 26.1543 -97.1049
rradius 20.3241
rwrist 17.2904
rhand -26.4475 -53.669
rfingers 7.12502
rthumb 0.113512 -83.6487
lclavicle -6.04305e-014 3.97569e-014
lhumerus -54.5481 -84.0558 129.972
lradius 85.459
lwrist 24.3797
lhand 2.41537 -18.8739
lfingers 7.12502
lthumb 27.9018 9.07341
rfemur -33.2504 1.91718 -4.41241
rtibia 76.8739
rfoot -2.77474 -9.50785
rtoes -31.1166
lfemur -49.888 -19.3282 -28.8649
ltibia 58.5406
lfoot -21.5117 0.190442
ltoes 17.3917
1163
root 0.689234 15.6652 2.9402 5.35677 -45.1388 12.7625
lowerback 0.789809 4.83341 6.37132
upperback 5.32845 6.32936 -1.33054
thorax 5.98429 3.47432 -4.61609
lowerneck 0.886755 -9.29531 -12.3908
upperneck 47.326 -18.0988 8.10827
head 21.1282 -8.85976 3.39255
rclavicle 3.26007e-014 -2.06736e-014
rhumerus -20.9933 26.0863 -97.0644
rradius 20.2534
rwrist 17.3578
rhand -26.2224 -53.7718
rfingers 7.12502
rthumb 0.330983 -83.7512
lclavicle 3.26007e-014 -2.06736e-014
lhumerus -54.7892 -84.0748 130.268
lradius 85.3911
lwrist 24.2097
lhand 1.92238 -19.0623
lfingers 7.12502
lthumb 27.4304 8.96068
rfemur -33.3554 1.99701 -4.13621
rtibia 77.0052
rfoot -2.85262 -9.57659
rtoes -30.7621
lfemur -50.0427 -19.2753 -28.5889
ltibia 58.6544
lfoot -21.4671 0.0763038
ltoes 17.1025
1164
root 0.692167 15.664 2.93349 5.48764 -45.1009 12.5679
lowerback 0.815257 4.80986 6.41259
upperback 5.294 6.29381 -1.21951
thorax 5.9192 3.45222 -4.52945
lowerneck 0.9707 -9.27307 -12.508
upperneck 47.386 -18.0347 8.03305
head 21.1414 -8.86568 3.39425
rclavicle 2.54444e-014 4.77083e-015
rhumerus -21.0797 26.2157 -97.0467
rradius 20.2873
rwrist 17.3481
rhand -26.1042 -53.8927
rfingers 7.12502
rthumb 0.445066 -83.872
lclavicle 2.54444e-014 4.77083e-015
lhumerus -54.8615 -84.0503 130.416
lradius 85.383
lwrist 24.0683
lhand 2.20387 -19.3199
lfingers 7.12502
lthumb 27.6995 8.66008
rfemur -33.3904 2.04606 -3.9527
rtibia 77.0767
rfoot -2.88733 -9.58686
rtoes -30.8886
lfemur -50.1277 -19.2677 -28.4154
ltibia 58.7561
lfoot -21.4828 0.0637065
ltoes 16.9889
1165
root 0.693687 15.6648 2.92943 5.63414 -45.1489 12.4296
lowerback 0.739516 4.80155 6.41427
upperback 5.27715 6.27497 -1.14821
thorax 5.93317 3.44024 -4.45141
lowerneck 1.01471 -9.24368 -12.5856
upperneck 47.3581 -17.9625 8.00792
head 21.0946 -8.8555 3.4109
rclavicle -6.59965e-014 2.22639e-014
rhumerus -21.2032 26.5113 -97.0947
rradius 20.3906
rwrist 17.0387
rhand -26.1843 -53.9118
rfingers 7.12502
rthumb 0.367707 -83.8912
lclavicle -6.59965e-014 2.22639e-014
lhumerus -54.2443 -84.0161 129.831
lradius 85.4111
lwrist 24.0451
lhand 2.6489 -19.5573
lfingers 7.12502
lthumb 28.125 8.35353
rfemur -33.5293 2.0946 -3.81845
rtibia 77.1229
rfoot -2.73394 -9.61451
rtoes -31.2524
lfemur -50.2384 -19.1527 -28.3533
ltibia 58.8594
lfoot -21.5908 0.239284
ltoes 16.6941
1166
root 0.696937 15.6663 2.9251 5.7122 -45.2216 12.3431
lowerback 0.797429 4.83632 6.36737
upperback 5.25465 6.32475 -1.11273
thorax 5.87234 3.45933 -4.3914
lowerneck 1.00065 -9.26735 -12.5704
upperneck 47.3139 -18.0087 8.04326
head 21.0784 -8.86647 3.41492
rclavicle -2.14687e-014 2.06736e-014
rhumerus -21.3227 26.5653 -97.1058
rradius 20.5793
rwrist 16.7411
rhand -25.9697 -54.0231
rfingers 7.12502
rthumb 0.575022 -84.0021
lclavicle -2.14687e-014 2.06736e-014
lhumerus -54.246 -84.0176 129.879
lradius 85.3993
lwrist 24.0859
lhand 2.81734 -19.7647
lfingers 7.12502
lthumb 28.286 8.11956
rfemur -33.6661 2.14499 -3.73231
rtibia 77.1537
rfoot -2.53857 -9.68495
rtoes -31.4811
lfemur -50.3178 -18.9801 -28.3935
ltibia 58.9484
lfoot -21.7287 0.545312
ltoes 16.34
1167
root 0.700538 15.6656 2.92556 5.5812 -45.2696 12.3988
lowerback 0.883053 4.84546 6.30415
upperback 5.31101 6.34198 -1.12755
thorax 5.87996 3.4668 -4.37568
lowerneck 0.863622 -9.28785 -12.6113
upperneck 47.3538 -18.079 8.13184
head 21.2068 -8.88849 3.44682
rclavicle 7.79236e-014 -3.81667e-014
rhumerus -21.3024 26.637 -97.1132
rradius 20.7233
rwrist 16.5356
rhand -25.7566 -53.9434
rfingers 7.12502
rthumb 0.780823 -83.9217
lclavicle 7.79236e-014 -3.81667e-014
lhumerus -54.0342 -84.096 129.657
lradius 85.4206
lwrist 24.2133
lhand 2.60404 -19.3012
lfingers 7.12502
lthumb 28.0821 8.6167
rfemur -33.594 2.19842 -3.81423
rtibia 77.1713
rfoot -2.73236 -9.67221
rtoes -30.7463
lfemur -50.2369 -18.8856 -28.5302
ltibia 58.993
lfoot -21.8097 0.623798
ltoes 16.8388
